<svg id="Capa_1" enable-background="new 0 0 512 512" height="512" viewBox="0 0 512 512" width="512" xmlns="http://www.w3.org/2000/svg"><g><g><g><g><path d="m176.217 512-7.22-49.374 52.124-19.578 34.879 19.791 21.837 19.594-21.837 29.567z" fill="#d1d9e1"/><path d="m256 462.839 21-29.669-21-13.599h-95.17l8.127 43.268z" fill="#e5eaee"/></g><g><path d="m271.561 429.5 42.722-131.628s-57.841-225.02-58.283-224.994c-44.798 2.592-86.324 16.701-117.859 47.833-31.168 30.77-48.262 71.938-48.262 115.79 0 44.202 18.178 86.681 50.018 117.225l22.853 75.774z" fill="#fed843"/><g><path d="m207.644 325.369h48.356l10.021-15-10.021-15h-48.356z" fill="#fbca14"/></g></g></g></g><g><path d="m271.19 0v29.73h-15.19l-7.595-15.921 7.595-13.809z" fill="#fbca14"/><path d="m240.81 0h15.19v29.73h-15.19z" fill="#fed843"/><path d="m411.409 70.121h30v30.383h-30z" fill="#fbca14" transform="matrix(.707 -.707 .707 .707 64.573 326.513)"/><path d="m70.399 70.313h30.383v30h-30.383z" fill="#fed843" transform="matrix(.707 -.707 .707 .707 -35.256 85.508)"/></g><g><path d="m258.951 512c23.378 0 45.386-2.438 63.788-27.704 26.85-6.049 47.863-28.503 52.994-56.469 17.846-8.241 34.577-25.835 31.992-63.098-.534-7.706-2.47-13.768-5.038-18.695 6.314-3.274 12.269-7.673 17.641-13.099 17.506-17.679 27.05-43.951 24.909-68.563-2.929-33.681-29.615-53.906-52.28-61.124 3.717-20.931 4.619-49.458-10.541-70.841-9.628-13.579-24.699-22.321-43.584-25.281-7.477-1.171-13.366-1.15-18.138-.396-16.158-25.864-40.912-32.939-64.694-33.852v439.122z" fill="#f9a58d"/><path d="m256.553 483.988c21.752.155 30.905-1.192 41.815-18.765l1.326-2.137c-.371-14.346-3.456-32.247-9.691-37.32l21.482-22.509c12.841 10.445 17.843 29.296 19.709 44.759 7.528-7.248 12.548-17.808 13.076-29.377l.481-10.583 10.964-3.121c10.711-3.049 21.411-9.746 19.565-36.292-.483-6.939-2.646-9.549-7.255-14.048-11.137-.796-32.286-3.754-49.497-14.63-18.518-11.703-25.1-31.351-25.79-33.553l31.217-8.331c.738 2.359 5.097 12.18 12.927 17.128 12.504 7.901 31.905 9.661 38.385 9.675 9.12-.057 16.53-5.598 21.14-10.239 11.479-11.553 17.976-29.56 16.552-45.875-2.391-27.387-30.921-36.551-37.337-36.551-.097 0-.191.002-.279.006l-13.159.641-3.313-11.471-1.734-5.232 1.076-4.043c6.905-25.952 5.76-48.85-3.064-61.253-4.705-6.613-11.9-10.594-21.995-12.17-1.151-.18-2.133-.299-2.987-.38.422 4.969.708 11.029.479 17.379-.876 24.255-8.748 40.362-23.397 47.876l-15.78-26.225c6.061-3.109 8.621-24.994 5.377-44.792-8.857-20.253-21.764-26.73-40.846-27.671v358.265 20.832z" fill="#ffbda9"/></g></g></svg>