<svg id="Layer_1" enable-background="new 0 0 512 512" height="512" viewBox="0 0 512 512" width="512" xmlns="http://www.w3.org/2000/svg"><path d="m354.343 342.519-.58 2.24c-5.91 23.23-8.91 47.13-8.91 71.031v29.35c0 22.53-18.31 40.86-40.819 40.86h-140.307c-22.51 0-40.819-18.33-40.819-40.86v-13.25h-31.92c-27.089 0-49.119-22.06-49.119-49.17v-45.33h-12.74c-10.38-.19-19.72-5.64-25-14.6-5.27-8.95-5.51-19.77-.64-28.93l29.989-56.631c5.52-10.41 8.44-22.15 8.44-33.93 0-47.66 18.62-92.381 52.429-125.931 27.669-27.46 62.789-44.66 100.728-49.76 8.35-1.13 16.85-1.67 25.429-1.6 41.639.33 81.938 15.33 113.468 42.23l4.87 4.16z" fill="#ffe0d9"/><path d="m354.343 342.519-.58 2.24c-5.91 23.23-8.91 47.13-8.91 71.031v29.35c0 22.53-18.31 40.86-40.819 40.86h-108.958v-458.394c8.35-1.13 16.85-1.67 25.429-1.6 41.639.33 81.938 15.33 113.468 42.23l4.87 4.16z" fill="#fcc7be"/><path d="m512 208.588c0 82.441-66.999 149.511-149.337 149.511-82.348 0-149.347-67.071-149.347-149.511 0-82.451 66.999-149.521 149.347-149.521 82.338-.001 149.337 67.07 149.337 149.521z" fill="#c8ffff"/><path d="m512 208.588c0 82.441-66.999 149.511-149.337 149.511v-299.033c82.338 0 149.337 67.071 149.337 149.522z" fill="#98f9ff"/><path d="m382.422 221.208c-2.85 1.09-4.76 4.07-4.76 7.39 0 8.29-6.72 15-15 15-8.29 0-15-6.71-15-15 0-12.09 5.76-23.34 15-30.36 2.72-2.08 5.74-3.78 9-5.03 10.38-3.99 16.83-14.16 16.05-25.3-.87-12.41-11.29-22.61-23.72-23.24-.44-.02-.89-.04-1.33-.04-6.72-.01-12.98 2.58-17.76 7.36-5.86 5.86-15.36 5.86-21.22 0-5.85-5.86-5.85-15.36 0-21.21 10.34-10.34 24.42-16.12 38.979-16.14.94 0 1.89.02 2.84.07 27.78 1.4 50.189 23.37 52.129 51.101 1.712 24.378-12.438 46.649-35.208 55.399z" fill="#2a5959"/><path d="m377.662 271.938v15.6c0 8.28-6.72 15-15 15-8.29 0-15-6.72-15-15v-15.6c0-8.28 6.71-15 15-15 8.281 0 15 6.72 15 15z" fill="#2a5959"/><g fill="#2b4747"><path d="m377.662 271.938v15.6c0 8.28-6.72 15-15 15v-45.6c8.281 0 15 6.72 15 15z"/><path d="m382.422 221.208c-2.85 1.09-4.76 4.07-4.76 7.39 0 8.29-6.72 15-15 15v-45.36c2.72-2.08 5.74-3.78 9-5.03 10.38-3.99 16.83-14.16 16.05-25.3-.87-12.41-11.29-22.61-23.72-23.24-.44-.02-.89-.04-1.33-.04v-29.99c.94 0 1.89.02 2.84.07 27.78 1.4 50.189 23.37 52.129 51.101 1.711 24.378-12.439 46.649-35.209 55.399z"/></g></svg>